<svg xmlns="http://www.w3.org/2000/svg" viewBox="0 0 128 128">
  <defs>
    <linearGradient id="top" x1="0.15" y1="0" x2="0.85" y2="1">
      <stop offset="0" stop-color="#f6f6f6"/>
      <stop offset="1" stop-color="#b8b8b8"/>
    </linearGradient>
    <linearGradient id="side" x1="0" y1="0" x2="1" y2="0">
      <stop offset="0" stop-color="#999"/>
      <stop offset="0.5" stop-color="#d4d4d4"/>
      <stop offset="1" stop-color="#888"/>
    </linearGradient>
  </defs>
  <path d="M15 58v18c0 22 22 39 49 39s49-17 49-39V58Z" fill="url(#side)" stroke="#666" stroke-width="3"/>
  <path d="M113 58c0 22-22 39-49 39S15 80 15 58s22-39 49-39 49 17 49 39Z" fill="url(#top)" stroke="#666" stroke-width="3"/>
  <path d="M86 58c0 9-10 16-22 16s-22-7-22-16 10-16 22-16 22 7 22 16Z" fill="#727272" stroke="#666" stroke-width="3"/>
  <path d="M43 58c2-8 10-14 21-14s19 6 21 14" fill="none" stroke="#e8e8e8" stroke-width="2" opacity="0.75"/>
</svg>
