<svg xmlns="http://www.w3.org/2000/svg" viewBox="0 0 64 64" role="img" aria-labelledby="title">
  <title id="title">Bent tube</title>
  <defs>
    <linearGradient id="tube" x1="0" y1="0" x2="1" y2="1">
      <stop stop-color="#ffffff"/><stop offset=".5" stop-color="#e5e9eb"/><stop offset="1" stop-color="#9ca7ad"/>
    </linearGradient>
  </defs>
  <path d="m18 11 24 15c12 8 12 13 0 20L22 55" fill="none" stroke="#66727a" stroke-width="17" stroke-linecap="round"/>
  <path d="m18 11 24 15c12 8 12 13 0 20L22 55" fill="none" stroke="url(#tube)" stroke-width="14" stroke-linecap="round"/>
  <path d="m19 8 25 15c8 5 11 10 8 14" fill="none" stroke="#ffffff" stroke-width="2" stroke-linecap="round" opacity=".7"/>
  <ellipse cx="18" cy="11" rx="7.5" ry="4.5" transform="rotate(32 18 11)" fill="#f5f7f8" stroke="#7b858b"/>
  <ellipse cx="18" cy="11" rx="4.5" ry="2.3" transform="rotate(32 18 11)" fill="#657179"/>
  <ellipse cx="22" cy="55" rx="5.5" ry="7.5" transform="rotate(27 22 55)" fill="#e9edef" stroke="#66727a"/>
  <ellipse cx="22" cy="55" rx="3" ry="4.9" transform="rotate(27 22 55)" fill="#637079"/>
</svg>
